<?xml version="1.0" encoding="utf-8" ?>
<svg xmlns="http://www.w3.org/2000/svg" xmlns:xlink="http://www.w3.org/1999/xlink" width="120.3516" height="39.1506" viewBox="0 0 120.3516 39.1506">
	<path transform="matrix(1 0 0 1 0 1.82636)" d="M0 0L31.2305 0L31.2305 37.3242L0 37.3242L0 0Z" fill-rule="nonzero" fill="rgb(13, 13, 13)"/>
	<path transform="matrix(1 0 0 1 20.749 1.82636)" d="M0.304687 0L0.304687 37.3242L-0.304687 37.3242L-0.304687 0L0.304687 0Z" fill-rule="nonzero" fill="rgb(255, 255, 255)"/>
	<path transform="matrix(0 1 -1 0 31.2305 24.5788)" d="M0.304687 0L0.304687 31.2305L-0.304687 31.2305L-0.304687 0L0.304687 0Z" fill-rule="nonzero" fill="rgb(255, 255, 255)"/>
	<path transform="matrix(1 0 0 1 35.3438 0)" d="M7.66769 20.1962Q6.17435 20.1962 4.93948 19.6889Q3.70461 19.1768 2.8 18.2291Q1.90017 17.2766 1.39761 15.9747Q0.899828 14.668 0.899828 13.1173Q0.899828 11.6287 1.43111 10.3556Q1.96239 9.0824 2.90051 8.12035Q3.84342 7.1583 5.09743 6.63181Q6.35145 6.10052 7.82085 6.10052Q8.82119 6.10052 9.75931 6.39728Q10.7022 6.68924 11.4872 7.21095Q12.2721 7.72787 12.8034 8.41232L11.1761 10.1976Q10.6639 9.66633 10.1231 9.30736Q9.587 8.9436 9.00786 8.75693Q8.42871 8.57027 7.82085 8.57027Q6.92102 8.57027 6.12649 8.90531Q5.33196 9.23556 4.75282 9.84343Q4.17367 10.4513 3.83863 11.2841Q3.50837 12.1169 3.50837 13.1364Q3.50837 14.175 3.82906 15.0222Q4.15453 15.8646 4.75282 16.4725Q5.35111 17.0803 6.18393 17.4058Q7.01675 17.7265 8.01709 17.7265Q8.66324 17.7265 9.2711 17.5494Q9.87897 17.3723 10.3959 17.0516Q10.9176 16.7262 11.3532 16.2954L12.6072 18.3152Q12.1333 18.8417 11.3484 19.2773Q10.5682 19.708 9.59657 19.9521Q8.62495 20.1962 7.66769 20.1962Z" fill-rule="nonzero" fill="rgb(13, 13, 13)"/>
	<path transform="matrix(1 0 0 1 35.3438 0)" d="M17.6266 20.1962Q16.0758 20.1962 14.8601 19.5022Q13.6491 18.8034 12.9407 17.5877Q12.2372 16.372 12.2372 14.826Q12.2372 13.2752 12.9407 12.0595Q13.6491 10.8438 14.8601 10.1498Q16.0758 9.45095 17.6266 9.45095Q19.1582 9.45095 20.3691 10.1498Q21.5848 10.8438 22.2789 12.0595Q22.9777 13.2752 22.9777 14.826Q22.9777 16.372 22.2789 17.5877Q21.5848 18.8034 20.3691 19.5022Q19.1582 20.1962 17.6266 20.1962ZM17.6266 18.0568Q18.4689 18.0568 19.1247 17.626Q19.7852 17.1952 20.1633 16.4725Q20.5462 15.745 20.5271 14.826Q20.5462 13.8831 20.1633 13.1603Q19.7852 12.4328 19.1247 12.0116Q18.4689 11.5904 17.6266 11.5904Q16.7842 11.5904 16.1045 12.0116Q15.4296 12.4328 15.0563 13.1699Q14.6878 13.9022 14.6878 14.826Q14.6878 15.745 15.0563 16.4725Q15.4296 17.1952 16.1045 17.626Q16.7842 18.0568 17.6266 18.0568Z" fill-rule="nonzero" fill="rgb(13, 13, 13)"/>
	<path transform="matrix(1 0 0 1 35.3438 0)" d="M23.179 20L23.179 9.66633L25.5483 9.66633L25.5914 11.7484L25.1989 11.9015Q25.3712 11.3942 25.7254 10.9539Q26.0796 10.5135 26.5678 10.188Q27.0608 9.86257 27.6064 9.68069Q28.1568 9.49403 28.7264 9.49403Q29.5688 9.49403 30.2245 9.75727Q30.8802 10.0205 31.3206 10.5901Q31.7657 11.1597 31.9811 12.0403L31.6078 11.9638L31.7657 11.6479Q31.9811 11.1788 32.3736 10.7959Q32.766 10.413 33.2543 10.1115Q33.7425 9.80514 34.2833 9.65197Q34.8242 9.49403 35.3507 9.49403Q36.5281 9.49403 37.3131 9.96309Q38.098 10.4321 38.4905 11.3942Q38.883 12.3562 38.883 13.7634L38.883 20L36.4515 20L36.4515 13.9214Q36.4515 13.1364 36.2457 12.6291Q36.0399 12.1169 35.6187 11.8728Q35.1975 11.6287 34.5657 11.6287Q34.0775 11.6287 33.6372 11.7962Q33.1968 11.9638 32.8809 12.2701Q32.5698 12.5716 32.3927 12.9641Q32.2156 13.3518 32.2156 13.8256L32.2156 20L29.7842 20L29.7842 13.9022Q29.7842 13.1556 29.5688 12.6578Q29.3534 12.16 28.9418 11.8968Q28.5302 11.6287 27.9414 11.6287Q27.4532 11.6287 27.0177 11.7962Q26.5869 11.9638 26.271 12.2605Q25.9599 12.5525 25.7828 12.945Q25.6105 13.3327 25.6105 13.8065L25.6105 20L23.179 20Z" fill-rule="nonzero" fill="rgb(13, 13, 13)"/>
	<path transform="matrix(1 0 0 1 35.3438 0)" d="M39.6072 20L39.6072 9.66633L41.9764 9.66633L42.0195 11.7484L41.627 11.9015Q41.7993 11.3942 42.1535 10.9539Q42.5077 10.5135 42.9959 10.188Q43.4889 9.86257 44.0345 9.68069Q44.5849 9.49403 45.1545 9.49403Q45.9969 9.49403 46.6526 9.75727Q47.3083 10.0205 47.7487 10.5901Q48.1938 11.1597 48.4092 12.0403L48.0359 11.9638L48.1938 11.6479Q48.4092 11.1788 48.8017 10.7959Q49.1942 10.413 49.6824 10.1115Q50.1706 9.80514 50.7114 9.65197Q51.2523 9.49403 51.7788 9.49403Q52.9562 9.49403 53.7412 9.96309Q54.5261 10.4321 54.9186 11.3942Q55.3111 12.3562 55.3111 13.7634L55.3111 20L52.8796 20L52.8796 13.9214Q52.8796 13.1364 52.6738 12.6291Q52.468 12.1169 52.0468 11.8728Q51.6256 11.6287 50.9938 11.6287Q50.5056 11.6287 50.0653 11.7962Q49.6249 11.9638 49.309 12.2701Q48.9979 12.5716 48.8208 12.9641Q48.6437 13.3518 48.6437 13.8256L48.6437 20L46.2123 20L46.2123 13.9022Q46.2123 13.1556 45.9969 12.6578Q45.7815 12.16 45.3699 11.8968Q44.9583 11.6287 44.3695 11.6287Q43.8813 11.6287 43.4458 11.7962Q43.015 11.9638 42.6991 12.2605Q42.388 12.5525 42.2109 12.945Q42.0386 13.3327 42.0386 13.8065L42.0386 20L39.6072 20Z" fill-rule="nonzero" fill="rgb(13, 13, 13)"/>
	<path transform="matrix(1 0 0 1 35.3438 0)" d="M60.7977 20.1962Q59.2469 20.1962 58.0312 19.5022Q56.8202 18.8034 56.1119 17.5877Q55.4083 16.372 55.4083 14.826Q55.4083 13.2752 56.1119 12.0595Q56.8202 10.8438 58.0312 10.1498Q59.2469 9.45095 60.7977 9.45095Q62.3293 9.45095 63.5402 10.1498Q64.756 10.8438 65.45 12.0595Q66.1488 13.2752 66.1488 14.826Q66.1488 16.372 65.45 17.5877Q64.756 18.8034 63.5402 19.5022Q62.3293 20.1962 60.7977 20.1962ZM60.7977 18.0568Q61.6401 18.0568 62.2958 17.626Q62.9563 17.1952 63.3344 16.4725Q63.7173 15.745 63.6982 14.826Q63.7173 13.8831 63.3344 13.1603Q62.9563 12.4328 62.2958 12.0116Q61.6401 11.5904 60.7977 11.5904Q59.9553 11.5904 59.2756 12.0116Q58.6007 12.4328 58.2274 13.1699Q57.8589 13.9022 57.8589 14.826Q57.8589 15.745 58.2274 16.4725Q58.6007 17.1952 59.2756 17.626Q59.9553 18.0568 60.7977 18.0568Z" fill-rule="nonzero" fill="rgb(13, 13, 13)"/>
	<path transform="matrix(1 0 0 1 35.3438 0)" d="M66.3884 20L66.3884 9.66633L68.7385 9.66633L68.7816 11.7867L68.3269 12.0212Q68.5231 11.3128 69.0927 10.7385Q69.6623 10.1593 70.4472 9.80514Q71.2322 9.45095 72.0555 9.45095Q73.2281 9.45095 74.0226 9.92479Q74.8172 10.3939 75.2192 11.3368Q75.6213 12.2749 75.6213 13.6868L75.6213 20L73.209 20L73.209 13.8639Q73.209 13.079 72.9936 12.5621Q72.7782 12.0403 72.3283 11.7962Q71.8784 11.5521 71.2322 11.5713Q70.7009 11.5713 70.2606 11.7388Q69.8202 11.9015 69.4948 12.2079Q69.1741 12.5094 68.9874 12.9019Q68.8008 13.2944 68.8008 13.7634L68.8008 20L67.6042 20Q67.25 20 66.9437 20Q66.6421 20 66.3884 20Z" fill-rule="nonzero" fill="rgb(13, 13, 13)"/>
	<path transform="matrix(1 0 0 1 35.3438 23.1736)" d="M0.308502 11L5.53433 -2.40112L7.86679 -2.40112L13.0552 11L10.475 11L7.60036 3.38095Q7.50687 3.15191 7.34327 2.65644Q7.17967 2.15629 6.98803 1.57201Q6.79638 0.987722 6.64213 0.482902Q6.49256 -0.0265942 6.41309 -0.255632L6.89454 -0.279004Q6.77769 0.104286 6.62344 0.585735Q6.46918 1.06251 6.29624 1.58135Q6.12796 2.09552 5.96436 2.57697Q5.80076 3.05375 5.66521 3.43704L2.79521 11L0.308502 11ZM2.67835 7.93836L3.54309 5.77417L9.64769 5.77417L10.5685 7.93836L2.67835 7.93836Z" fill-rule="nonzero" fill="rgb(13, 13, 13)"/>
	<path transform="matrix(1 0 0 1 35.3438 23.1736)" d="M16.8177 11.1916Q15.4014 11.1916 14.2703 10.5045Q13.1391 9.81274 12.4894 8.62547Q11.8396 7.43821 11.8396 5.94712Q11.8396 4.45135 12.4894 3.26409Q13.1391 2.07683 14.2703 1.38971Q15.4014 0.697918 16.8177 0.697918Q18.1733 0.697918 19.2857 1.21676Q20.3982 1.7356 21.0106 2.65176L19.7064 4.22231Q19.4213 3.82033 18.9772 3.4978Q18.5379 3.1706 18.0377 2.97896Q17.5422 2.78731 17.0468 2.78731Q16.2054 2.78731 15.5417 3.19865Q14.8826 3.60999 14.4993 4.32982Q14.116 5.04498 14.116 5.94712Q14.116 6.84458 14.5086 7.55507Q14.9013 8.26088 15.5697 8.68156Q16.2428 9.10225 17.0655 9.10225Q17.5609 9.10225 18.0284 8.94332Q18.5005 8.77972 18.9212 8.4759Q19.3418 8.16739 19.7064 7.70464L21.0106 9.29389Q20.3562 10.1399 19.2156 10.6681Q18.0798 11.1916 16.8177 11.1916Z" fill-rule="nonzero" fill="rgb(13, 13, 13)"/>
	<path transform="matrix(1 0 0 1 35.3438 23.1736)" d="M25.2677 11.1916Q23.8514 11.1916 22.7203 10.5045Q21.5891 9.81274 20.9394 8.62547Q20.2896 7.43821 20.2896 5.94712Q20.2896 4.45135 20.9394 3.26409Q21.5891 2.07683 22.7203 1.38971Q23.8514 0.697918 25.2677 0.697918Q26.6233 0.697918 27.7357 1.21676Q28.8482 1.7356 29.4605 2.65176L28.1564 4.22231Q27.8713 3.82033 27.4272 3.4978Q26.9879 3.1706 26.4877 2.97896Q25.9922 2.78731 25.4968 2.78731Q24.6554 2.78731 23.9917 3.19865Q23.3326 3.60999 22.9493 4.32982Q22.566 5.04498 22.566 5.94712Q22.566 6.84458 22.9586 7.55507Q23.3513 8.26088 24.0197 8.68156Q24.6928 9.10225 25.5155 9.10225Q26.0109 9.10225 26.4784 8.94332Q26.9505 8.77972 27.3711 8.4759Q27.7918 8.16739 28.1564 7.70464L29.4605 9.29389Q28.8061 10.1399 27.6656 10.6681Q26.5298 11.1916 25.2677 11.1916Z" fill-rule="nonzero" fill="rgb(13, 13, 13)"/>
	<path transform="matrix(1 0 0 1 35.3438 23.1736)" d="M34.1197 11.1916Q32.5305 11.1916 31.3105 10.5232Q30.0952 9.85013 29.4174 8.69559Q28.7396 7.53637 28.7396 6.0406Q28.7396 4.85334 29.1182 3.87642Q29.5015 2.8995 30.1793 2.18433Q30.8617 1.4645 31.8106 1.07186Q32.7595 0.67922 33.886 0.67922Q34.8816 0.67922 35.7417 1.06251Q36.6064 1.4458 37.2374 2.10955Q37.8685 2.76862 38.205 3.6801Q38.5416 4.58691 38.5229 5.65731L38.5042 6.47998L30.3289 6.47998L29.8848 4.87204L36.5316 4.87204L36.2231 5.19924L36.2231 4.77855Q36.167 4.18492 35.8398 3.73619Q35.5173 3.28279 35.0078 3.0257Q34.503 2.76862 33.886 2.76862Q32.9511 2.76862 32.3061 3.13321Q31.6657 3.49313 31.3385 4.17557Q31.016 4.85334 31.016 5.86766Q31.016 6.84458 31.4273 7.57376Q31.8387 8.29827 32.5959 8.69091Q33.3531 9.08355 34.3674 9.08355Q35.0733 9.08355 35.6669 8.85451Q36.2605 8.62547 36.9523 8.03184L38.1209 9.65849Q37.602 10.1399 36.9383 10.4765Q36.2792 10.8084 35.55 11Q34.8255 11.1916 34.1197 11.1916Z" fill-rule="nonzero" fill="rgb(13, 13, 13)"/>
	<path transform="matrix(1 0 0 1 35.3438 23.1736)" d="M42.1091 11.1916Q40.7676 11.1916 39.7019 10.7429Q38.6408 10.2895 37.9724 9.44814L39.5055 8.13Q40.0805 8.77972 40.7863 9.06953Q41.4968 9.35466 42.282 9.35466Q42.6046 9.35466 42.8617 9.27987Q43.1234 9.20041 43.3151 9.04616Q43.5067 8.89191 43.6095 8.69091Q43.717 8.48992 43.717 8.24218Q43.717 7.7841 43.3712 7.51767Q43.1795 7.38212 42.7682 7.22787Q42.3568 7.07362 41.7071 6.92404Q40.6741 6.65293 39.9823 6.30236Q39.2952 5.94712 38.9119 5.50306Q38.5847 5.14314 38.4211 4.68507Q38.2622 4.22231 38.2622 3.68477Q38.2622 3.01635 38.5567 2.46946Q38.8511 1.92257 39.37 1.52059Q39.8888 1.1186 40.5759 0.908259Q41.2677 0.697918 42.0109 0.697918Q42.7775 0.697918 43.4927 0.889563Q44.2125 1.08121 44.8342 1.43645Q45.4605 1.7917 45.8999 2.28717L44.5958 3.72684Q44.2312 3.38095 43.8012 3.11451Q43.3712 2.84341 42.9318 2.67981Q42.4924 2.51621 42.1091 2.51621Q41.7445 2.51621 41.4547 2.58632Q41.1696 2.65176 40.9779 2.78731Q40.7863 2.91819 40.6788 3.12386Q40.5759 3.32485 40.5759 3.59129Q40.5946 3.82033 40.6975 4.02132Q40.805 4.22231 40.9966 4.35787Q41.207 4.48875 41.6277 4.6617Q42.053 4.83464 42.7214 4.98889Q43.661 5.23663 44.292 5.54513Q44.923 5.84896 45.2876 6.25095Q45.6522 6.59684 45.8018 7.05959Q45.956 7.51767 45.956 8.06923Q45.956 8.97137 45.4465 9.68186Q44.9417 10.3877 44.0676 10.7897Q43.1982 11.1916 42.1091 11.1916Z" fill-rule="nonzero" fill="rgb(13, 13, 13)"/>
	<path transform="matrix(1 0 0 1 35.3438 23.1736)" d="M49.5255 11.1916Q48.184 11.1916 47.1183 10.7429Q46.0572 10.2895 45.3888 9.44814L46.9219 8.13Q47.4969 8.77972 48.2027 9.06953Q48.9132 9.35466 49.6984 9.35466Q50.021 9.35466 50.2781 9.27987Q50.5398 9.20041 50.7315 9.04616Q50.9231 8.89191 51.0259 8.69091Q51.1334 8.48992 51.1334 8.24218Q51.1334 7.7841 50.7875 7.51767Q50.5959 7.38212 50.1846 7.22787Q49.7732 7.07362 49.1235 6.92404Q48.0905 6.65293 47.3987 6.30236Q46.7116 5.94712 46.3283 5.50306Q46.0011 5.14314 45.8375 4.68507Q45.6786 4.22231 45.6786 3.68477Q45.6786 3.01635 45.9731 2.46946Q46.2675 1.92257 46.7864 1.52059Q47.3052 1.1186 47.9923 0.908259Q48.6841 0.697918 49.4273 0.697918Q50.1939 0.697918 50.9091 0.889563Q51.6289 1.08121 52.2506 1.43645Q52.8769 1.7917 53.3163 2.28717L52.0122 3.72684Q51.6476 3.38095 51.2176 3.11451Q50.7875 2.84341 50.3482 2.67981Q49.9088 2.51621 49.5255 2.51621Q49.1609 2.51621 48.8711 2.58632Q48.586 2.65176 48.3943 2.78731Q48.2027 2.91819 48.0952 3.12386Q47.9923 3.32485 47.9923 3.59129Q48.011 3.82033 48.1139 4.02132Q48.2214 4.22231 48.413 4.35787Q48.6234 4.48875 49.044 4.6617Q49.4694 4.83464 50.1378 4.98889Q51.0774 5.23663 51.7084 5.54513Q52.3394 5.84896 52.704 6.25095Q53.0686 6.59684 53.2182 7.05959Q53.3724 7.51767 53.3724 8.06923Q53.3724 8.97137 52.8629 9.68186Q52.3581 10.3877 51.484 10.7897Q50.6146 11.1916 49.5255 11.1916Z" fill-rule="nonzero" fill="rgb(13, 13, 13)"/>
	<path transform="matrix(1 0 0 1 114.105 8.27532)" d="M0.304687 0L0.304687 20.9153L-0.304687 20.9153L-0.304687 0L0.304687 0Z" fill-rule="nonzero" fill="rgb(13, 13, 13)"/>
	<path transform="matrix(0 1 -1 0 120.352 23.4914)" d="M0.304687 0L0.304687 23.6133L-0.304687 23.6133L-0.304687 0L0.304687 0Z" fill-rule="nonzero" fill="rgb(13, 13, 13)"/>
</svg>
